<?xml version="1.0" encoding="UTF-8"?> <svg xmlns="http://www.w3.org/2000/svg" width="51" height="75" viewBox="0 0 51 75" fill="none"><path d="M11.7882 38.8239L11.745 39.011C11.2946 39.5392 10.9009 40.0887 10.5639 40.6595C10.2364 41.2243 10.007 41.7913 9.87565 42.3603C9.74788 42.9137 9.75743 43.3347 9.90431 43.6231C10.059 43.9133 10.3156 44.0999 10.6742 44.1826C11.0951 44.2798 11.4612 44.1878 11.7724 43.9066C12.0854 43.6176 12.3175 43.1457 12.4687 42.491L13.0842 39.8251L14.7094 40.2003L13.3597 46.0465L12.0852 45.7523L12.07 44.9113L11.9765 44.8897C11.7576 45.1265 11.4764 45.2956 11.1328 45.3969C10.7988 45.4922 10.4135 45.4895 9.977 45.3887C9.22089 45.2142 8.67976 44.8552 8.35361 44.3119C8.02747 43.7686 7.95798 43.0917 8.14514 42.281C8.27831 41.7042 8.52361 41.1573 8.88103 40.6405C9.24805 40.1176 9.64984 39.6398 10.0864 39.2069L9.74645 38.919C9.52761 38.7289 9.37142 38.5164 9.2779 38.2813C9.19398 38.0402 9.17901 37.8028 9.233 37.5689C9.31398 37.2182 9.44353 36.9238 9.62164 36.6857L10.1731 35.9509L11.4187 36.7435L11.0598 37.1778C10.9572 37.302 10.8853 37.4537 10.8439 37.6329C10.8097 37.781 10.8229 37.9196 10.8834 38.0485C10.9536 38.1714 11.1047 38.3171 11.3367 38.4857L11.7882 38.8239ZM15.3558 46.5074L16.7055 40.6611L17.98 40.9554L17.9979 41.7847L18.0915 41.8063C18.3104 41.5694 18.5868 41.4034 18.9208 41.308C19.2626 41.2145 19.6518 41.2182 20.0883 41.3189C20.7742 41.4773 21.265 41.7877 21.5606 42.25C21.8657 42.7063 21.9373 43.2853 21.7754 43.9868L20.8981 47.7869L19.2728 47.4117L20.0718 43.9507C20.1636 43.5532 20.1433 43.2324 20.0108 42.9883C19.8783 42.7442 19.6561 42.5862 19.3443 42.5142C18.9312 42.4189 18.572 42.5166 18.2668 42.8073C17.9711 43.0921 17.7477 43.5619 17.5966 44.2167L16.9811 46.8826L15.3558 46.5074ZM29.2893 45.4013L28.3418 49.5054L27.0673 49.2112L27.0521 48.3702L26.9585 48.3486C26.7396 48.5854 26.4584 48.7545 26.1148 48.8558C25.7808 48.9511 25.3956 48.9484 24.959 48.8476C24.2731 48.6892 23.7784 48.378 23.4751 47.9138C23.1795 47.4515 23.1127 46.8696 23.2746 46.168L24.1492 42.3797L25.7745 42.7549L24.9755 46.2158C24.8855 46.6056 24.9058 46.9264 25.0365 47.1782C25.169 47.4223 25.3912 47.5803 25.703 47.6523C26.1161 47.7477 26.4705 47.653 26.7661 47.3682C27.0714 47.0774 27.2996 46.6046 27.4508 45.9498L27.664 45.0261C27.7216 44.7767 27.7324 44.5165 27.6965 44.2454C27.6605 43.9744 27.5451 43.6563 27.3503 43.2911C27.1656 42.9529 27.0466 42.6504 26.9933 42.3835C26.9417 42.1089 26.9349 41.8897 26.9726 41.726C27.05 41.3908 27.1952 41.1 27.4081 40.8536C27.6305 40.6012 27.9253 40.427 28.2923 40.3311C28.6592 40.2352 29.1039 40.2476 29.6261 40.3681C30.2029 40.5013 30.6358 40.7778 30.9248 41.1975C31.2138 41.6173 31.2854 42.1429 31.1396 42.7743L29.6196 42.4233C29.7204 41.9868 29.5876 41.7263 29.2212 41.6417C29.0731 41.6075 28.9463 41.6234 28.8408 41.6893C28.7352 41.7553 28.6672 41.8545 28.6366 41.987C28.5952 42.1663 28.6141 42.3513 28.6932 42.542C28.7819 42.7267 28.8925 42.941 29.025 43.1851C29.2439 43.5887 29.3649 43.9533 29.3883 44.2789C29.4212 44.5985 29.3882 44.9726 29.2893 45.4013ZM30.451 49.9923L31.8007 44.1461L33.0751 44.4404L33.0931 45.2696L33.1866 45.2912C33.4055 45.0544 33.6819 44.8883 34.0159 44.793C34.3577 44.6995 34.7469 44.7032 35.1834 44.8039C35.8694 44.9623 36.3601 45.2726 36.6557 45.735C36.9609 46.1913 37.0325 46.7703 36.8705 47.4718L35.9932 51.2719L34.3679 50.8966L35.167 47.4357C35.2587 47.0381 35.2384 46.7173 35.1059 46.4733C34.9734 46.2292 34.7512 46.0712 34.4395 45.9992C34.0263 45.9038 33.6671 46.0015 33.3619 46.2923C33.0663 46.5771 32.8428 47.0469 32.6917 47.7017L32.0762 50.3676L30.451 49.9923ZM44.7866 47.1442L43.4369 52.9904L42.1624 52.6961L42.1472 51.8552L42.0537 51.8336C41.8348 52.0704 41.5535 52.2395 41.2099 52.3408C40.8759 52.4361 40.4907 52.4334 40.0542 52.3326C39.3682 52.1742 38.8735 51.863 38.5702 51.3988C38.2746 50.9365 38.2078 50.3545 38.3698 49.653L39.2444 45.8646L40.8696 46.2399L40.0706 49.7008C39.9806 50.0906 40.001 50.4114 40.1317 50.6632C40.2642 50.9073 40.4863 51.0653 40.7981 51.1373C41.2112 51.2327 41.5656 51.138 41.8613 50.8532C42.1665 50.5624 42.3947 50.0896 42.5459 49.4348L43.1613 46.7689L44.7866 47.1442Z" fill="black"></path><path d="M32.7344 69.4631C32.9676 69.7195 33.1647 69.9644 33.3234 70.1963L33.3226 70.1958C33.4969 70.4337 33.6003 70.6812 33.6238 70.9372L33.6246 70.9378C33.661 71.2125 33.5662 71.4887 33.3723 71.7606C33.2061 71.9937 32.9947 72.1975 32.7401 72.3712C32.4961 72.5464 32.2447 72.6821 31.9861 72.7775L31.9123 72.8052L30.8207 72.0266L31.0569 71.9192C31.2477 71.8325 31.459 71.7196 31.6904 71.5793C31.9188 71.4409 32.0618 71.3174 32.1366 71.2127C32.2236 71.0907 32.2571 70.9947 32.2596 70.9226L32.2596 70.9142L32.2602 70.9134C32.2658 70.852 32.2452 70.7609 32.1663 70.6329C32.087 70.5114 31.9505 70.3464 31.7526 70.135L31.751 70.1339C31.4815 69.8419 31.2572 69.5445 31.0781 69.2425L31.0763 69.24C30.8997 68.9287 30.7796 68.6055 30.7167 68.271L30.7158 68.2655C30.6631 67.9236 30.6892 67.569 30.79 67.2029C30.8917 66.8333 31.0866 66.4491 31.3702 66.0514C31.679 65.6186 32.0061 65.2761 32.3523 65.0294L32.3548 65.0276C32.7059 64.7868 33.0716 64.6336 33.4507 64.5725C33.8338 64.5056 34.2184 64.5301 34.6018 64.6439C34.9818 64.7567 35.3576 64.9467 35.7288 65.2114C35.9878 65.3962 36.2204 65.5997 36.4271 65.8199L36.4285 65.8197C36.6401 66.0349 36.81 66.2536 36.9359 66.4755L37.0062 66.5989L36.8867 66.6756L36.1714 67.1369L36.05 67.2147L35.9678 67.0961C35.8489 66.9251 35.717 66.7582 35.5731 66.595L35.5697 66.5914C35.4357 66.4295 35.2697 66.2766 35.0704 66.1345C34.7184 65.8835 34.4013 65.7598 34.1174 65.745C33.829 65.7301 33.5583 65.8019 33.3029 65.9653L33.3031 65.9667C33.051 66.1336 32.8106 66.3731 32.5841 66.6905C32.4127 66.9309 32.2754 67.1627 32.1711 67.3856C32.0746 67.595 32.0249 67.8064 32.0196 68.02C32.0188 68.2224 32.0698 68.4398 32.1781 68.6741C32.2857 68.9066 32.4689 69.1697 32.7344 69.4631Z" fill="black" stroke="black" stroke-width="0.3"></path><path d="M29.3905 60.6904C29.8679 61.031 30.2206 61.4345 30.4424 61.9014C30.6755 62.3685 30.7585 62.8705 30.6915 63.4021L30.6618 63.6017C30.5753 64.0699 30.3608 64.5401 30.0247 65.0113C29.7356 65.4166 29.4171 65.7395 29.0679 65.9758L29.0677 65.9744C28.731 66.2081 28.372 66.3593 27.9909 66.4263C27.614 66.4981 27.2264 66.4809 26.83 66.3755L26.8278 66.3752C26.4425 66.2682 26.0636 66.0808 25.6917 65.8155C25.3438 65.5673 25.0585 65.2811 24.8387 64.9563L24.8368 64.9538C24.6211 64.6223 24.4821 64.2651 24.4211 63.8836C24.36 63.502 24.3801 63.1085 24.4781 62.7055L24.479 62.7025C24.5887 62.2954 24.7896 61.8887 25.0787 61.4834C25.4617 60.9465 25.8881 60.5544 26.3602 60.3174C26.836 60.0749 27.3357 59.987 27.8546 60.0555C28.3757 60.1178 28.8883 60.3322 29.3905 60.6904ZM28.7317 61.5736C28.2392 61.2223 27.7994 61.1342 27.3982 61.2654C26.9788 61.4026 26.5725 61.7301 26.1854 62.2728C25.9291 62.6322 25.7585 62.9762 25.6683 63.3038C25.5907 63.6224 25.6066 63.9158 25.7106 64.188C25.8138 64.458 26.0204 64.7101 26.3442 64.941C26.6681 65.172 26.9735 65.2853 27.2625 65.2949C27.554 65.3046 27.8333 65.2215 28.1033 65.0394L28.1052 65.0384C28.3907 64.8512 28.6621 64.5805 28.918 64.2219C29.1784 63.8568 29.3425 63.5152 29.418 63.1979C29.4926 62.8845 29.4737 62.5966 29.3658 62.3294L29.3643 62.3247C29.2676 62.0612 29.0626 61.8096 28.7317 61.5736Z" fill="black" stroke="black" stroke-width="0.3"></path><path d="M21.3761 55.1068L19.1134 58.279C18.8698 58.6205 18.7874 58.9285 18.8352 59.2105C18.8874 59.4873 19.0764 59.7568 19.4366 60.0137C19.7702 60.2516 20.0631 60.3668 20.3185 60.3801C20.5885 60.3921 20.8473 60.3168 21.0981 60.1481C21.3586 59.9697 21.6158 59.7065 21.8682 59.3527L23.7096 56.7712L24.7884 57.5407L22.0732 61.3474C21.9528 61.5161 21.9245 61.6304 21.9351 61.7023C21.9532 61.7868 21.9978 61.8538 22.0747 61.9086C22.1157 61.9379 22.1643 61.9653 22.2214 61.9905C22.2866 62.0193 22.3328 62.0399 22.3604 62.0512L22.5348 62.1229L21.9717 62.9123L21.8839 62.9025C21.825 62.896 21.7571 62.8786 21.6833 62.8542C21.6066 62.8288 21.5264 62.7966 21.4436 62.7564C21.3583 62.715 21.2774 62.6666 21.201 62.6121C20.9486 62.4321 20.7685 62.2167 20.6733 61.9646L20.6723 61.9627C20.5985 61.7557 20.6051 61.5198 20.6757 61.2634C20.567 61.2926 20.4582 61.3157 20.3486 61.33L20.1736 61.3467C19.9437 61.359 19.7092 61.3221 19.4722 61.2386L19.4719 61.2373C19.2359 61.1637 18.9935 61.0375 18.7459 60.8609C18.573 60.7376 18.4242 60.6037 18.3012 60.4586L18.3018 60.4578C18.1833 60.3257 18.0842 60.1846 18.0068 60.0338L18.0033 60.0253C17.9813 59.9746 17.9636 59.9229 17.9455 59.8726C17.9424 59.8775 17.9401 59.883 17.9369 59.888L17.6998 60.2407L17.3906 60.6943L16.3228 62.1913L15.2439 61.4218L20.2973 54.3372L21.3761 55.1068Z" fill="black" stroke="black" stroke-width="0.3"></path><path d="M16.5134 51.5056C16.9911 51.8465 17.3443 52.2499 17.5661 52.7171L17.6461 52.8942C17.8169 53.3099 17.8725 53.7513 17.8141 54.2159C17.7572 54.7503 17.5316 55.288 17.1475 55.8264C16.8585 56.2317 16.54 56.5548 16.1908 56.791L16.1906 56.7896C15.8539 57.0233 15.4949 57.1745 15.1138 57.2415C14.7368 57.3133 14.3493 57.2961 13.9529 57.1907L13.9507 57.1904C13.5654 57.0834 13.1871 56.8951 12.8151 56.6299C12.4672 56.3817 12.182 56.0955 11.9621 55.7707L11.9603 55.7682C11.7446 55.4367 11.6056 55.0795 11.5445 54.698C11.4836 54.3165 11.503 53.9236 11.601 53.5207L11.6019 53.5177C11.7116 53.1107 11.9126 52.7038 12.2016 52.2986C12.5845 51.7617 13.0111 51.3696 13.4831 51.1326L13.663 51.0486C14.0843 50.8703 14.5235 50.8108 14.9775 50.8707C15.4986 50.933 16.0112 51.1474 16.5134 51.5056ZM15.8546 52.3888C15.362 52.0374 14.9223 51.9493 14.5211 52.0806C14.1017 52.2178 13.6954 52.5453 13.3083 53.088C13.0521 53.4472 12.882 53.7908 12.7918 54.1182L12.791 54.1176C12.7131 54.4366 12.7299 54.7299 12.834 55.0024C12.9372 55.2725 13.1431 55.5251 13.4671 55.7562C13.7909 55.9872 14.0969 56.0997 14.3859 56.1093C14.6773 56.1189 14.9568 56.0359 15.2267 55.8538L15.2281 55.8536C15.5136 55.6665 15.785 55.3956 16.0408 55.0371C16.3012 54.672 16.4654 54.3304 16.5409 54.0131C16.6155 53.6996 16.5966 53.4119 16.4887 53.1446L16.4872 53.1399C16.3905 52.8763 16.1855 52.6249 15.8546 52.3888ZM17.7032 49.888L18.4387 50.4343L18.6203 50.5698L18.4251 50.6837L17.7703 51.067L17.7705 51.0684L17.2873 51.3607L17.1997 51.4146L17.1177 51.3513L16.6915 51.0221L16.5627 50.9218L16.6736 50.8018L17.0483 50.3925L17.0494 50.3909L17.5045 49.9059L17.5962 49.8093L17.7032 49.888Z" fill="black" stroke="black" stroke-width="0.3"></path><path d="M8.804 46.1392L8.77477 46.2407L7.87766 49.4441L7.70995 50.0778C7.64739 50.3261 7.58066 50.5671 7.50961 50.801L7.42013 51.1198C7.41604 51.1333 7.41048 51.1461 7.40642 51.1592C7.93647 51.0464 8.41283 50.8782 8.83614 50.6532L8.8375 50.653C9.32546 50.3976 9.77552 50.0664 10.187 49.6591L10.1875 49.6583C10.6122 49.2468 11.0256 48.7592 11.4277 48.1954L11.5151 48.073L12.5844 48.8357L12.4971 48.9582C12.163 49.4265 11.8122 49.8489 11.4454 50.2256L11.0733 50.5876C10.6334 50.9887 10.139 51.3297 9.59147 51.6106L9.35394 51.7267C8.719 52.0278 7.97487 52.247 7.12353 52.3849L7.06281 52.3943L6.02767 51.656L6.0544 51.5563L7.62251 45.5471L7.67823 45.3362L8.804 46.1392Z" fill="black" stroke="black" stroke-width="0.3"></path><path d="M45.4573 24.8325L45.2056 24.7251C44.6962 24.5086 44.182 24.4459 43.6606 24.5332C43.0312 24.6386 42.5579 24.9278 42.2281 25.3987C41.903 25.8635 41.79 26.4257 41.9027 27.0987C42.0137 27.762 42.2879 28.2364 42.7136 28.5423C43.1448 28.8484 43.6748 28.9547 44.3171 28.8472C44.8531 28.7576 45.3319 28.5118 45.7543 28.1047L45.9589 27.9071L46.1715 29.1776L46.1015 29.2328C45.6239 29.6083 45.029 29.8529 44.323 29.9711C43.3639 30.1316 42.5268 29.9796 41.8257 29.5028L41.8246 29.502C41.1277 29.0205 40.7046 28.3176 40.5524 27.4079C40.3836 26.3992 40.566 25.5226 41.1098 24.7927C41.6526 24.0596 42.4606 23.6092 43.516 23.4326C44.1046 23.3341 44.6468 23.3452 45.1393 23.4708L45.2335 23.4956L45.4573 24.8325Z" fill="#B40000" stroke="#B40000" stroke-width="0.3"></path><path d="M35.8245 24.7196C36.8233 24.5525 37.6686 24.6993 38.3424 25.1805L38.3414 25.1807C39.0193 25.661 39.435 26.4085 39.6011 27.4007C39.7646 28.3779 39.5917 29.2267 39.0704 29.9331C38.5525 30.635 37.7757 31.0666 36.7587 31.2369C35.7671 31.4028 34.9105 31.2528 34.2036 30.7723L34.2025 30.7715C33.4993 30.286 33.0713 29.5616 32.9129 28.6149C32.7413 27.5895 32.9144 26.7187 33.449 26.0202C33.9814 25.3245 34.7796 24.8945 35.8245 24.7196ZM35.9316 25.8265C35.2952 25.933 34.84 26.2106 34.5467 26.6514L34.5469 26.6523C34.253 27.0897 34.1535 27.6506 34.2709 28.352C34.3835 29.0245 34.6581 29.5054 35.0812 29.8155C35.5047 30.1259 36.0233 30.2351 36.6517 30.13C37.295 30.0223 37.7359 29.7552 38.0012 29.3427L38.002 29.3416L38.0947 29.1795C38.2919 28.7849 38.3468 28.2837 38.243 27.6636C38.1231 26.9471 37.8586 26.4464 37.4658 26.1371L37.4648 26.1373C37.0789 25.8298 36.5746 25.7189 35.9316 25.8265Z" fill="#B40000" stroke="#B40000" stroke-width="0.3"></path><path d="M25.9015 26.5228L25.9263 26.6711C25.9517 26.8223 25.9936 27.0114 26.0531 27.239C26.1161 27.4635 26.1978 27.6982 26.2984 27.9416C26.3979 28.1825 26.5161 28.4229 26.6536 28.6623L26.762 28.8304C26.8721 28.992 26.9919 29.1376 27.1212 29.2673L27.2547 29.3846C27.3915 29.4941 27.5389 29.5816 27.6969 29.6482L27.8547 29.698C28.0167 29.7361 28.1914 29.7397 28.3802 29.7081C28.6319 29.666 28.8337 29.5733 28.9917 29.4335L29.1133 29.3141C29.2296 29.1885 29.3277 29.0462 29.4072 28.8867L29.407 28.8858C29.5182 28.6652 29.6005 28.4245 29.6523 28.1625L29.652 28.1606C29.7084 27.8885 29.7443 27.6225 29.76 27.3623C29.7758 27.1002 29.7755 26.853 29.7579 26.622L29.7574 26.6191C29.7437 26.3831 29.7243 26.1904 29.6991 26.0397L29.6743 25.8914L31.0121 25.6675L32.052 31.8819L30.7142 32.1058L30.2706 29.4551C30.2425 29.5116 30.2134 29.5674 30.1816 29.6215L30.1805 29.6207C30.06 29.8325 29.9169 30.0223 29.7508 30.1887C29.5844 30.3552 29.4008 30.4939 29.2004 30.6036L29.1986 30.6049C28.9968 30.7108 28.7857 30.7829 28.5662 30.8196C28.3222 30.8605 28.0833 30.8616 27.851 30.8235L27.849 30.8238C27.6195 30.7821 27.4002 30.7084 27.1924 30.6039C26.9847 30.4995 26.7905 30.3656 26.6115 30.2031C26.5729 30.1681 26.5359 30.1313 26.4992 30.0942L26.9415 32.7371L25.6026 32.9612L24.5627 26.7468L25.9015 26.5228Z" fill="#B40000" stroke="#B40000" stroke-width="0.3"></path><path d="M19.9331 27.379C20.9318 27.2119 21.7772 27.3586 22.4509 27.8399L22.45 27.84C23.1278 28.3203 23.5436 29.0679 23.7096 30.06C23.8732 31.0373 23.7002 31.8861 23.1789 32.5925C22.6611 33.2944 21.8842 33.726 20.8673 33.8962C19.8756 34.0622 19.019 33.9122 18.3122 33.4317L18.3111 33.4309C17.6079 32.9453 17.1798 32.221 17.0214 31.2743C16.8498 30.2488 17.023 29.3781 17.5576 28.6795C18.09 27.9838 18.8881 27.5539 19.9331 27.379ZM20.0401 28.4859C19.4037 28.5924 18.9485 28.87 18.6553 29.3107L18.6555 29.3117C18.3615 29.7491 18.2621 30.3099 18.3795 31.0114C18.492 31.6838 18.7667 32.1647 19.1898 32.4749C19.6133 32.7853 20.1319 32.8945 20.7603 32.7893C21.4035 32.6816 21.8445 32.4146 22.1098 32.0021L22.1106 32.001L22.2033 31.8389C22.4004 31.4442 22.4553 30.9431 22.3516 30.3229C22.2317 29.6065 21.9672 29.1058 21.5743 28.7965L21.5734 28.7967C21.1874 28.4892 20.6832 28.3783 20.0401 28.4859Z" fill="#B40000" stroke="#B40000" stroke-width="0.3"></path><path d="M10.6727 29.0712L10.7278 29.1224L14.5014 32.697L14.5109 32.7063L14.5099 32.7065C14.5355 32.7353 14.5598 32.7642 14.5835 32.7912L13.8714 28.5359L15.1206 28.3269L16.1606 34.5412L14.8584 34.7591L14.8041 34.7068L11.124 31.1878L11.1158 31.1803L11.2276 31.0794L11.1156 31.1793C11.0455 31.1012 10.9814 31.0268 10.9212 30.9584L11.6472 35.2965L10.4104 35.5035L9.37052 29.2891L10.6727 29.0712Z" fill="#B40000" stroke="#B40000" stroke-width="0.3"></path><path d="M36.2692 5.7057C36.4501 5.89154 36.6541 6.10963 36.8819 6.35811C37.1131 6.5985 37.3497 6.85291 37.5902 7.12119C37.8278 7.38447 38.0452 7.64007 38.2409 7.88799L38.2401 7.88851C38.437 8.12575 38.5947 8.33628 38.71 8.52072C38.7844 8.63991 38.8447 8.76476 38.8903 8.89402L38.8889 8.89371C38.9397 9.02225 38.96 9.15408 38.9453 9.288C38.9304 9.42316 38.8824 9.55079 38.8048 9.66944C38.7226 9.79497 38.5945 9.90677 38.4333 10.0075L37.2242 10.763C37.1022 10.8393 36.9675 10.8657 36.8277 10.838L36.8283 10.8389L36.8215 10.8373L36.821 10.8365C36.6659 10.8089 36.5453 10.7158 36.4596 10.5787C36.3761 10.4452 36.3482 10.2986 36.3907 10.1496C36.4216 10.005 36.5032 9.88931 36.6291 9.81064L37.8341 9.05768C37.7614 8.95738 37.664 8.83063 37.5366 8.6793L37.5361 8.67847C37.3464 8.45163 37.1284 8.20362 36.8806 7.93538L36.8782 7.93341C36.6318 7.65481 36.3861 7.38396 36.1416 7.12126L36.1411 7.12044C35.8922 6.85107 35.6739 6.61831 35.4867 6.42154L35.38 6.30974L35.4952 6.20664L36.0616 5.69958L36.169 5.60249L36.2692 5.7057Z" fill="black" stroke="black" stroke-width="0.3"></path><path d="M33.948 2.96056C34.1368 2.84268 34.3224 2.80801 34.5014 2.86579C34.6753 2.92196 34.8154 3.03493 34.9204 3.20277C34.9777 3.29442 35.021 3.41403 35.0538 3.55816C35.0904 3.70006 35.0874 3.8846 35.0473 4.10803L35.047 4.10937C35.011 4.28685 34.9583 4.47765 34.8914 4.68221L34.8927 4.68252C34.8313 4.88431 34.7303 5.15725 34.5898 5.50058L34.5705 5.54716L34.5239 5.5279L34.1805 5.38553L34.1352 5.36659L34.1528 5.32104L34.3466 4.81653C34.2303 4.73316 34.1294 4.65077 34.0464 4.56651L34.0459 4.56568C33.9458 4.47118 33.8581 4.36471 33.7838 4.24579C33.6415 4.01803 33.5745 3.78338 33.5858 3.54384C33.5975 3.29746 33.7212 3.10225 33.948 2.96056ZM34.1899 3.38634C34.1321 3.42243 34.0956 3.46312 34.0758 3.50599C34.0562 3.54842 34.0507 3.59788 34.0629 3.65682L34.0637 3.65982C34.0853 3.79365 34.1252 3.90578 34.1821 3.99687C34.2756 4.14637 34.3855 4.25679 34.509 4.33385C34.5445 4.21311 34.5733 4.10411 34.5932 4.00602C34.6336 3.78249 34.6111 3.6147 34.5362 3.49465C34.4822 3.40817 34.4277 3.36251 34.3747 3.34682C34.3234 3.3316 34.2629 3.3408 34.1899 3.38634Z" fill="black" stroke="black" stroke-width="0.1"></path><path d="M29.1641 10.11C29.4839 9.96815 29.8601 9.76368 30.2914 9.49424C30.716 9.2289 31.0741 8.97034 31.3672 8.72067C31.6668 8.45612 31.9458 8.2428 32.2035 8.08175C32.577 7.84837 32.9655 7.72257 33.3672 7.71044L33.3663 7.71096C33.7872 7.69453 34.1813 7.84805 34.5452 8.15464C34.6869 8.26928 34.8451 8.43477 35.0185 8.64659L35.1475 8.80891C35.2761 8.97739 35.4043 9.16455 35.5326 9.36979C35.6549 9.56558 35.7488 9.74964 35.8122 9.92052C35.8564 10.0276 35.8889 10.1405 35.9128 10.2584L36.7517 9.73418L37.3469 10.6866L35.7187 11.704C35.5684 11.9169 35.364 12.1041 35.1074 12.2645C34.8216 12.443 34.5012 12.5562 34.1484 12.6058L34.147 12.6055C33.8106 12.6497 33.5054 12.6592 33.2331 12.6319L33.1042 12.6191L33.0985 12.4902L33.0637 11.7969L33.0569 11.6422L33.2106 11.6395C33.498 11.634 33.7583 11.6071 33.9909 11.5595C34.2206 11.5125 34.4083 11.4403 34.5581 11.3467C34.8077 11.1908 34.9221 11.0111 34.9395 10.809L34.9403 10.8085C34.9609 10.5803 34.8901 10.3208 34.7062 10.0266C34.368 9.48539 34.0796 9.1353 33.8433 8.95712L33.8428 8.9563C33.7195 8.86267 33.57 8.81599 33.3864 8.82117L33.3794 8.82096C33.201 8.81793 33.0192 8.87108 32.8312 8.9885C32.6541 9.09915 32.5008 9.20148 32.3736 9.29745L32.3749 9.29776C32.2812 9.36898 32.1935 9.44181 32.1114 9.51543C32.2811 9.95179 32.4242 10.387 32.5367 10.8227L32.5372 10.8235C32.6562 11.2937 32.6988 11.7572 32.6645 12.2122L32.6642 12.2135C32.6251 12.6718 32.4691 13.1109 32.1989 13.5291C31.9249 13.9531 31.4953 14.343 30.9211 14.7019L29.4246 15.637C29.3008 15.7143 29.1638 15.7409 29.0219 15.7113L29.0214 15.7104C28.8663 15.6828 28.7456 15.5897 28.6599 15.4526C28.5765 15.3191 28.5486 15.1725 28.591 15.0236C28.6219 14.8788 28.7035 14.7633 28.8294 14.6846L30.3955 13.706C30.8017 13.4521 31.0898 13.1882 31.2704 12.9186C31.4559 12.6348 31.5608 12.3441 31.5888 12.046L31.5886 12.0438C31.6228 11.7337 31.6004 11.4085 31.519 11.0682L31.5188 11.066C31.454 10.7721 31.366 10.4709 31.2585 10.1612C31.2008 10.2015 31.14 10.2448 31.0751 10.2896C30.9441 10.3801 30.8222 10.4603 30.7098 10.5306C29.9449 11.0085 29.2958 11.3248 28.7658 11.4701C28.2543 11.6103 27.8543 11.6742 27.5811 11.6438L27.4693 11.6307L27.4496 11.5199L27.3089 10.7142L27.2816 10.5527L27.4444 10.5385C27.7361 10.5141 28.0161 10.4721 28.2843 10.4121C28.5549 10.3493 28.8487 10.2487 29.1641 10.11Z" fill="black" stroke="black" stroke-width="0.3"></path><path d="M30.018 7.26702C30.0988 7.21659 30.1885 7.20111 30.2834 7.21985L30.2825 7.22036C30.3816 7.23435 30.4633 7.30518 30.5313 7.41386C30.6035 7.52949 30.6355 7.64009 30.6089 7.74077C30.5841 7.83426 30.5304 7.90728 30.4496 7.95772C30.3539 8.01751 30.257 8.03848 30.1631 8.00779C30.0714 7.97778 29.9931 7.90157 29.925 7.79267C29.8606 7.68947 29.8295 7.59001 29.8452 7.49712C29.8612 7.40267 29.9231 7.32634 30.018 7.26702ZM29.5412 5.61197L29.9053 5.65279L29.9558 5.65808L29.9488 5.70963L29.847 6.42387L31.0244 6.77294L31.0687 6.78671L31.0589 6.83194L30.9728 7.21743L30.9612 7.27074L30.9096 7.25458L29.7784 6.90201L29.6166 8.02337L29.6092 8.0741L29.5593 8.06612L29.1987 8.0105L29.1493 8.00335L29.1564 7.95397L29.486 5.65451L29.4929 5.60648L29.5412 5.61197Z" fill="black" stroke="black" stroke-width="0.1"></path><path d="M24.1212 13.0296C24.6883 12.6753 25.2319 12.5583 25.7384 12.7169L25.7392 12.7164C26.2308 12.8606 26.7473 13.2337 27.288 13.811L27.2872 13.8115C27.5691 14.1088 27.7875 14.3417 27.9416 14.5104C28.1004 14.6745 28.2165 14.7898 28.2901 14.8581C28.3269 14.8922 28.3584 14.9213 28.3848 14.9451C28.4223 14.9282 28.4668 14.9066 28.5184 14.8789L28.959 14.6036L29.5541 15.556L29.01 15.896C28.7753 16.0427 28.5368 16.112 28.3008 16.0824L28.2959 16.0819C28.0491 16.0436 27.7946 15.8642 27.5338 15.592L27.5333 15.5912C27.3665 15.4146 27.1987 15.2382 27.0319 15.0616C26.8661 14.886 26.6976 14.7114 26.526 14.5394L26.5241 14.5383C26.1621 14.162 25.848 13.9257 25.5814 13.8146L25.5787 13.814C25.3393 13.7108 25.0633 13.7399 24.7315 13.9472C24.4884 14.0991 24.3187 14.2941 24.2168 14.5314C24.1126 14.774 24.0716 15.0343 24.0983 15.3148L24.0996 15.3151C24.1284 15.5863 24.2202 15.8471 24.3773 16.0985C24.5504 16.3756 24.7377 16.5542 24.9346 16.6496L25.0853 16.7064C25.2371 16.7509 25.3936 16.7587 25.556 16.73C25.7814 16.6902 26.009 16.6001 26.2385 16.4567C26.3985 16.3567 26.5195 16.2726 26.6037 16.2043C26.6865 16.1371 26.7752 16.0494 26.8699 15.9412L26.9681 15.8292L27.0814 15.9277L27.637 16.4096L27.739 16.4991L27.6618 16.6095C27.5475 16.7719 27.4114 16.9198 27.2552 17.0535C27.1018 17.1849 26.9293 17.3102 26.7382 17.4296C26.3735 17.6575 25.9944 17.7968 25.6018 17.8426L25.6004 17.8423C25.208 17.8848 24.8278 17.8133 24.4629 17.6307C24.0911 17.4446 23.7678 17.1227 23.4901 16.6783C23.301 16.3757 23.1717 16.0521 23.1022 15.7092L23.102 15.707C23.0392 15.3636 23.0302 15.0246 23.0764 14.6912L23.077 14.6885C23.1297 14.3497 23.2413 14.0355 23.4126 13.7476C23.5866 13.4553 23.8236 13.2157 24.1212 13.0296Z" fill="black" stroke="black" stroke-width="0.3"></path><path d="M16.1236 17.976C16.5544 17.7069 17.006 17.5926 17.4737 17.6414L17.6488 17.6655C17.9563 17.7206 18.2469 17.8443 18.5228 18.0303C18.4865 17.6894 18.5164 17.3767 18.6189 17.095L18.6836 16.9406C18.8664 16.5458 19.133 16.2361 19.4837 16.0169C19.7892 15.826 20.1275 15.7417 20.4932 15.7638L20.4924 15.7643C20.8553 15.7802 21.2117 15.9076 21.5598 16.1383L21.5589 16.1388C21.908 16.3665 22.2178 16.7012 22.4901 17.1369C22.7742 17.5917 22.9424 18.0121 22.9787 18.3943L22.9861 18.5554C22.9864 18.9091 22.8852 19.231 22.6827 19.5165L22.6814 19.5162C22.5403 19.7185 22.3736 19.9043 22.1807 20.0732L21.9791 20.2372C21.7129 20.438 21.4474 20.6212 21.1825 20.7867L16.4843 23.7225C16.3623 23.7988 16.2276 23.8252 16.0878 23.7975L16.0884 23.7984L16.0816 23.7968L16.0811 23.796C15.926 23.7683 15.8053 23.6753 15.7197 23.5382C15.6362 23.4046 15.6083 23.2581 15.6508 23.1091C15.6817 22.9645 15.7633 22.8488 15.8892 22.7701L16.5327 22.368C16.6143 22.3171 16.703 22.2661 16.7984 22.2146C16.6027 22.1458 16.4174 22.0422 16.244 21.9024L16.2435 21.9016C15.9808 21.6865 15.7429 21.4064 15.5295 21.0649C15.3125 20.7174 15.1814 20.3687 15.1436 20.0198L15.1334 19.8707C15.117 19.4732 15.1968 19.1067 15.3735 18.7752C15.5496 18.4452 15.8004 18.178 16.1236 17.976ZM19.9978 16.9946C19.8283 17.1005 19.6872 17.2619 19.5766 17.4869C19.4695 17.705 19.4215 17.965 19.4399 18.2725C19.4596 18.5592 19.5712 18.8752 19.7877 19.2217L20.0056 19.5703C20.0882 19.6921 20.1869 19.8396 20.3017 20.0129L20.9261 19.6227C21.2438 19.4242 21.486 19.2314 21.6561 19.0457C21.8166 18.8703 21.892 18.6844 21.8945 18.4856C21.8931 18.2791 21.8065 18.0222 21.612 17.7109C21.3863 17.3498 21.123 17.1016 20.8263 16.9548L20.8226 16.9525C20.5475 16.8075 20.2796 16.8185 19.9978 16.9946ZM16.7099 18.8959C16.4583 19.0532 16.2928 19.276 16.2104 19.5708C16.1354 19.837 16.192 20.1458 16.419 20.5091C16.7288 21.0049 17.0617 21.2758 17.4091 21.362L17.5409 21.3868C17.8485 21.4287 18.1427 21.3619 18.4292 21.183L19.4354 20.5542L18.9493 19.8573L18.8107 19.6687C18.4862 19.2492 18.1514 18.9702 17.8104 18.8197L17.8077 18.8191C17.4342 18.6449 17.0744 18.6682 16.7099 18.8959Z" fill="black" stroke="black" stroke-width="0.3"></path><path d="M15.9723 14.0781C16.1611 13.9602 16.3467 13.9255 16.5257 13.9833C16.6997 14.0395 16.8397 14.1524 16.9447 14.3203C17.002 14.4119 17.0453 14.5315 17.0781 14.6756C17.1147 14.8176 17.1118 15.0021 17.0716 15.2255L17.0713 15.2269C17.0354 15.4043 16.9826 15.5951 16.9157 15.7997L16.917 15.8C16.8556 16.0018 16.7546 16.2747 16.6141 16.6181L16.5948 16.6647L16.5482 16.6454L16.2048 16.503L16.1595 16.4841L16.1772 16.4385L16.3709 15.934C16.2546 15.8507 16.1537 15.7683 16.0707 15.684L16.0702 15.6832C15.9701 15.5887 15.8825 15.4822 15.8081 15.3633C15.6658 15.1355 15.5989 14.9009 15.6102 14.6613C15.6218 14.4149 15.7456 14.2197 15.9723 14.0781ZM16.2142 14.5038C16.1564 14.5399 16.1199 14.5806 16.1001 14.6235C16.0805 14.6659 16.075 14.7154 16.0872 14.7743L16.088 14.7773C16.1096 14.9111 16.1495 15.0233 16.2065 15.1144C16.2999 15.2639 16.4099 15.3743 16.5333 15.4513C16.5688 15.3306 16.5976 15.2216 16.6175 15.1235C16.6579 14.9 16.6363 14.7317 16.5614 14.6116C16.5073 14.5251 16.452 14.48 16.3991 14.4643C16.3477 14.4491 16.2872 14.4583 16.2142 14.5038Z" fill="black" stroke="black" stroke-width="0.1"></path><path d="M12 18.6233L12.7366 18.7756L12.8726 18.8035L12.855 18.9412C12.801 19.3631 12.6776 19.8164 12.4868 20.2998L12.4856 20.3016C12.2909 20.7787 12.0412 21.258 11.7381 21.7406L11.7395 21.741C11.4417 22.2208 11.1051 22.6727 10.7313 23.0964L10.731 23.0977C10.4673 23.3911 10.1887 23.6527 9.89781 23.8855C10.0057 23.8837 10.119 23.8852 10.2377 23.8931L10.4736 23.9058C10.7169 23.9228 10.9837 23.9535 11.2737 23.9976C11.6689 24.0544 12.05 24.095 12.4158 24.1189C12.7777 24.1385 13.1388 24.1132 13.4997 24.0438L13.7646 23.9739C14.0321 23.8887 14.3073 23.7591 14.5899 23.5826L16.0135 22.693L16.6081 23.6445L15.0801 24.5993C14.6466 24.8702 14.2231 25.0615 13.8099 25.1685L13.8068 25.1693C13.3988 25.2654 12.9817 25.3007 12.557 25.2755L12.5556 25.2752C12.2467 25.2537 11.9222 25.2136 11.5821 25.1546L11.2358 25.0888C10.7704 24.9934 10.324 24.9331 9.89637 24.9078L9.89285 24.9077C9.47301 24.8733 9.06708 24.8969 8.67468 24.978C8.32149 25.051 7.97223 25.1908 7.62458 25.3947C7.76099 25.529 7.92569 25.6945 8.11468 25.8933L8.11385 25.8939C8.37005 26.1613 8.63998 26.4579 8.92408 26.7832L8.92491 26.7827C9.21182 27.0993 9.48584 27.4156 9.74777 27.731L9.85769 27.8627L8.95747 28.4252L8.87425 28.3252C8.65478 28.0639 8.4522 27.831 8.26761 27.6253L8.26709 27.6244C8.07851 27.4124 7.87845 27.1947 7.66666 26.9713L7.66428 26.9693L7.66377 26.9685C7.45783 26.7417 7.21365 26.4789 6.93074 26.1806L6.6166 25.8529L6.60926 25.8449L6.60957 25.8435C6.54022 25.7585 6.48648 25.6889 6.45442 25.6376C6.36668 25.4971 6.31131 25.3564 6.30363 25.2194C6.29568 25.0768 6.34101 24.9483 6.43617 24.8418L6.45832 24.8164L6.48907 24.803C6.69371 24.7165 6.92126 24.6079 7.17178 24.4765L7.17261 24.476C7.42305 24.3365 7.65721 24.2027 7.87459 24.0754L8.34085 23.784C8.6412 23.5963 8.93353 23.3725 9.21696 23.1111L9.4971 22.837C9.77306 22.5451 10.0349 22.2337 10.2826 21.9028L10.5255 21.5656C10.8393 21.101 11.1075 20.6273 11.3297 20.1453C11.5539 19.6534 11.7182 19.1835 11.8238 18.7357L11.8572 18.5939L12 18.6233Z" fill="black" stroke="black" stroke-width="0.3"></path></svg> 